<svg width="2258" height="689" viewBox="0 0 2258 689" fill="none" xmlns="http://www.w3.org/2000/svg">
<path d="M144.84 337.6V550H233.4V46H144.84V255.52H-95.64V46H-184.2V550H-95.64V337.6H144.84Z" fill="black" fill-opacity="0.2"/>
<path d="M970.52 297.28C970.52 261.76 964.04 228.16 951.08 196.48C938.12 164.8 920.12 137.2 897.08 113.68C874.04 90.16 846.44 71.68 814.28 58.24C782.12 44.32 746.6 37.36 707.72 37.36C668.84 37.36 633.32 44.32 601.16 58.24C569 72.16 541.16 91.12 517.64 115.12C494.12 138.64 475.88 166.24 462.92 197.92C449.96 229.6 443.48 263.2 443.48 298.72C443.48 334.24 449.96 367.84 462.92 399.52C475.88 431.2 493.88 458.8 516.92 482.32C539.96 505.84 567.56 524.56 599.72 538.48C631.88 551.92 667.4 558.64 706.28 558.64C745.16 558.64 780.68 551.68 812.84 537.76C845 523.84 872.84 505.12 896.36 481.6C919.88 457.6 938.12 429.76 951.08 398.08C964.04 366.4 970.52 332.8 970.52 297.28ZM877.64 298.72C877.64 323.2 873.32 346.48 864.68 368.56C856.52 390.16 845 409.12 830.12 425.44C815.24 441.28 797.24 454 776.12 463.6C755.48 472.72 732.68 477.28 707.72 477.28C682.76 477.28 659.72 472.48 638.6 462.88C617.48 453.28 599.24 440.32 583.88 424C569 407.68 557.24 388.72 548.6 367.12C540.44 345.04 536.36 321.76 536.36 297.28C536.36 272.8 540.44 249.76 548.6 228.16C557.24 206.08 569 187.12 583.88 171.28C598.76 154.96 616.52 142.24 637.16 133.12C658.28 123.52 681.32 118.72 706.28 118.72C731.24 118.72 754.28 123.52 775.4 133.12C796.52 142.72 814.52 155.68 829.4 172C844.76 188.32 856.52 207.52 864.68 229.6C873.32 251.2 877.64 274.24 877.64 298.72Z" fill="black" fill-opacity="0.2"/>
<path d="M1536.6 188.56V550H1625.16V46H1530.84L1377.48 284.32L1224.12 46H1129.8V550H1216.92V190L1374.6 426.16H1377.48L1536.6 188.56Z" fill="black" fill-opacity="0.2"/>
<path d="M2244.48 46H1870.8V550H2248.08V470.8H1959.36V335.44H2212.08V256.24H1959.36V125.2H2244.48V46Z" fill="black" fill-opacity="0.2"/>
</svg>
