<svg width="98" height="27" viewBox="0 0 248 27" fill="none" xmlns="http://www.w3.org/2000/svg">
<path d="M14.41 13.15V22H18.1V0.999999H14.41V9.73H4.39V0.999999H0.7V22H4.39V13.15H14.41ZM34.353 0.849999H30.933L21.693 22H25.473L27.633 16.93H37.563L39.693 22H43.593L34.353 0.849999ZM36.213 13.66H28.983L32.583 5.26L36.213 13.66ZM56.6141 0.999999H47.1941V22H56.9141C58.0741 22 59.1341 21.88 60.0941 21.64C61.0541 21.38 61.8741 21.01 62.5541 20.53C63.2341 20.03 63.7541 19.42 64.1141 18.7C64.4941 17.98 64.6841 17.15 64.6841 16.21C64.6841 15.49 64.5841 14.86 64.3841 14.32C64.1841 13.76 63.8941 13.28 63.5141 12.88C63.1541 12.48 62.7141 12.14 62.1941 11.86C61.6941 11.56 61.1341 11.3 60.5141 11.08C60.8941 10.88 61.2641 10.64 61.6241 10.36C62.0041 10.08 62.3241 9.76 62.5841 9.4C62.8641 9.02 63.0841 8.58 63.2441 8.08C63.4241 7.58 63.5141 7.01 63.5141 6.37C63.5141 4.71 62.8941 3.4 61.6541 2.44C60.4141 1.48 58.7341 0.999999 56.6141 0.999999ZM55.8641 9.85H50.8241V4.27H56.1341C57.3341 4.27 58.2441 4.51 58.8641 4.99C59.5041 5.45 59.8241 6.11 59.8241 6.97C59.8241 7.95 59.4641 8.68 58.7441 9.16C58.0241 9.62 57.0641 9.85 55.8641 9.85ZM56.9441 18.73H50.8241V12.97H56.6741C58.1341 12.97 59.2141 13.22 59.9141 13.72C60.6341 14.22 60.9941 14.92 60.9941 15.82C60.9941 16.78 60.6341 17.51 59.9141 18.01C59.1941 18.49 58.2041 18.73 56.9441 18.73ZM84.4145 0.999999H68.8445V22H84.5645V18.7H72.5345V13.06H83.0645V9.76H72.5345V4.3H84.4145V0.999999ZM104.512 0.999999H88.9422V22H104.662V18.7H92.6322V13.06H103.162V9.76H92.6322V4.3H104.512V0.999999ZM118.46 0.999999H109.04V22H118.76C119.92 22 120.98 21.88 121.94 21.64C122.9 21.38 123.72 21.01 124.4 20.53C125.08 20.03 125.6 19.42 125.96 18.7C126.34 17.98 126.53 17.15 126.53 16.21C126.53 15.49 126.43 14.86 126.23 14.32C126.03 13.76 125.74 13.28 125.36 12.88C125 12.48 124.56 12.14 124.04 11.86C123.54 11.56 122.98 11.3 122.36 11.08C122.74 10.88 123.11 10.64 123.47 10.36C123.85 10.08 124.17 9.76 124.43 9.4C124.71 9.02 124.93 8.58 125.09 8.08C125.27 7.58 125.36 7.01 125.36 6.37C125.36 4.71 124.74 3.4 123.5 2.44C122.26 1.48 120.58 0.999999 118.46 0.999999ZM117.71 9.85H112.67V4.27H117.98C119.18 4.27 120.09 4.51 120.71 4.99C121.35 5.45 121.67 6.11 121.67 6.97C121.67 7.95 121.31 8.68 120.59 9.16C119.87 9.62 118.91 9.85 117.71 9.85ZM118.79 18.73H112.67V12.97H118.52C119.98 12.97 121.06 13.22 121.76 13.72C122.48 14.22 122.84 14.92 122.84 15.82C122.84 16.78 122.48 17.51 121.76 18.01C121.04 18.49 120.05 18.73 118.79 18.73ZM127.93 23.98V26.8H146.05V23.98H127.93ZM158.099 0.999999H148.679V22H158.399C159.559 22 160.619 21.88 161.579 21.64C162.539 21.38 163.359 21.01 164.039 20.53C164.719 20.03 165.239 19.42 165.599 18.7C165.979 17.98 166.169 17.15 166.169 16.21C166.169 15.49 166.069 14.86 165.869 14.32C165.669 13.76 165.379 13.28 164.999 12.88C164.639 12.48 164.199 12.14 163.679 11.86C163.179 11.56 162.619 11.3 161.999 11.08C162.379 10.88 162.749 10.64 163.109 10.36C163.489 10.08 163.809 9.76 164.069 9.4C164.349 9.02 164.569 8.58 164.729 8.08C164.909 7.58 164.999 7.01 164.999 6.37C164.999 4.71 164.379 3.4 163.139 2.44C161.899 1.48 160.219 0.999999 158.099 0.999999ZM157.349 9.85H152.309V4.27H157.619C158.819 4.27 159.729 4.51 160.349 4.99C160.989 5.45 161.309 6.11 161.309 6.97C161.309 7.95 160.949 8.68 160.229 9.16C159.509 9.62 158.549 9.85 157.349 9.85ZM158.429 18.73H152.309V12.97H158.159C159.619 12.97 160.699 13.22 161.399 13.72C162.119 14.22 162.479 14.92 162.479 15.82C162.479 16.78 162.119 17.51 161.399 18.01C160.679 18.49 159.689 18.73 158.429 18.73ZM170.329 22H185.059V18.64H174.019V0.999999H170.329V22ZM194.056 17.14L187.726 0.999999H183.646L192.376 22.15H195.616L204.346 0.999999H200.356L194.056 17.14ZM224.927 18.64L222.557 16.24C221.657 17.08 220.747 17.75 219.827 18.25C218.907 18.73 217.807 18.97 216.527 18.97C215.527 18.97 214.597 18.78 213.737 18.4C212.897 18 212.167 17.46 211.547 16.78C210.927 16.1 210.447 15.31 210.107 14.41C209.767 13.49 209.597 12.51 209.597 11.47C209.597 10.43 209.767 9.46 210.107 8.56C210.447 7.66 210.927 6.88 211.547 6.22C212.167 5.54 212.897 5.01 213.737 4.63C214.597 4.23 215.527 4.03 216.527 4.03C217.727 4.03 218.797 4.27 219.737 4.75C220.677 5.23 221.567 5.86 222.407 6.64L224.777 3.91C224.277 3.43 223.747 2.99 223.187 2.59C222.627 2.19 222.017 1.85 221.357 1.57C220.697 1.27 219.967 1.04 219.167 0.879998C218.387 0.719999 217.517 0.64 216.557 0.64C214.957 0.64 213.497 0.929999 212.177 1.51C210.857 2.07 209.717 2.85 208.757 3.85C207.797 4.83 207.047 5.98 206.507 7.3C205.987 8.62 205.727 10.03 205.727 11.53C205.727 13.05 205.997 14.47 206.537 15.79C207.077 17.11 207.817 18.26 208.757 19.24C209.717 20.2 210.847 20.96 212.147 21.52C213.447 22.08 214.867 22.36 216.407 22.36C217.387 22.36 218.277 22.27 219.077 22.09C219.897 21.93 220.647 21.69 221.327 21.37C222.007 21.03 222.637 20.64 223.217 20.2C223.817 19.74 224.387 19.22 224.927 18.64ZM238.285 10.03L247.015 0.999999H242.485L232.495 11.56V0.999999H228.805V22H232.495V15.91L235.765 12.55L242.935 22H247.405L238.285 10.03Z" fill="black"/>
</svg>
